# xmcd
#
# Track frame offsets:
#	150
#	18747
#	36150
#	57037
#	70567
#	83032
#	97445
#	109487
#	125545
#	141107
#	147962
#	162122
#	176772
#	193095
#	205737
#	221322
#	236387
#	251015
#	262012
#	278885
#
# Disc length: 3964 seconds
#
# Revision: 1
# Processed by: cddbd v1.5PL3 Copyright (c) Steve Scherf et al.
# Submitted via: CDex 1.50Beta5
#
DISCID=2d0f7a14
DTITLE=Various Artist - 戦時歌謡
DYEAR=1900
DGENRE=
TTITLE0=林伊佐緒/ボニ-ジャックス/出兵兵士を送る歌
TTITLE1=春日八郎/キング男声合唱団/同期の桜
TTITLE2=春日八郎/キング男声合唱団/暁に祈る
TTITLE3=坂本博士/楠トシエ/キング男声合唱団/日の丸行進曲
TTITLE4=坂本博士/楠トシエ/キング混声合唱団/紀元二千六百年
TTITLE5=若原一郎/父よあなたは強かった
TTITLE6=三船浩/愛馬行
TTITLE7=東海林太郎/麦と兵隊
TTITLE8=二葉百合子/九段の母
TTITLE9=友竹正則/隣組
TTITLE10=春日八郎/ラバウル小唄
TTITLE11=東海林太郎/国境の町
TTITLE12=東海林太郎/ああ草枕幾度ぞ
TTITLE13=春日八郎/上海だより
TTITLE14=大月みやこ/母子船頭唄
TTITLE15=二葉百合子/明日はお立ちか
TTITLE16=ペギー葉山/婦人従軍歌
TTITLE17=三船浩/戦友の遺骨を抱いて
TTITLE18=ペギー葉山/ボニ-ジャックス/空の神兵
TTITLE19=二葉百合子/ああ紅の血は燃ゆる
EXTD=
EXTT0=
EXTT1=
EXTT2=
EXTT3=
EXTT4=
EXTT5=
EXTT6=
EXTT7=
EXTT8=
EXTT9=
EXTT10=
EXTT11=
EXTT12=
EXTT13=
EXTT14=
EXTT15=
EXTT16=
EXTT17=
EXTT18=
EXTT19=
PLAYORDER=
